<?xml version="1.0" standalone="no"?>
<!DOCTYPE svg PUBLIC "-//W3C//DTD SVG 20010904//EN"
 "http://www.w3.org/TR/2001/REC-SVG-20010904/DTD/svg10.dtd">
<svg version="1.0" xmlns="http://www.w3.org/2000/svg"
 width="512.000000pt" height="512.000000pt" viewBox="0 0 512.000000 512.000000"
 preserveAspectRatio="xMidYMid meet">
<metadata>
Created by potrace 1.14, written by Peter Selinger 2001-2017
</metadata>
<g transform="translate(0.000000,512.000000) scale(0.100000,-0.100000)"
fill="#000000" stroke="none">
<path d="M707 4572 c-9 -2 -19 -11 -22 -21 -14 -45 -22 -168 -19 -301 4 -145
6 -171 19 -222 4 -16 3 -28 -1 -29 -5 0 -34 -2 -64 -4 -30 -1 -60 -3 -67 -4
-10 -1 -19 -43 -29 -136 -11 -106 -3 -310 16 -397 l8 -38 -87 -1 c-47 -1 -96
0 -108 1 -13 1 -23 0 -23 -2 0 -2 -7 -41 -14 -88 -16 -94 -14 -342 2 -425 6
-27 8 -52 6 -55 -3 -2 -33 -5 -67 -6 -34 -1 -65 -2 -68 -3 -4 -1 -10 -27 -14
-58 -4 -32 -9 -69 -11 -83 -12 -81 -4 -304 15 -390 4 -19 3 -55 -1 -80 -27
-148 -26 -374 2 -503 l8 -37 -94 0 -94 0 0 -575 0 -575 275 0 c151 0 275 3
276 8 0 4 2 16 4 27 20 99 24 371 7 459 -10 51 -9 124 3 191 16 91 12 298 -10
423 l-7 42 577 0 c544 0 576 -1 571 -17 -25 -88 -32 -394 -10 -493 9 -44 9
-78 -4 -160 -11 -67 -9 -362 2 -415 16 -71 -13 -65 306 -65 l288 0 7 53 c4 28
9 61 11 72 7 34 7 269 -1 326 -7 54 -14 105 -17 117 -2 7 11 101 18 137 6 26
5 281 0 320 -3 16 -8 51 -11 77 l-7 48 -109 0 -109 0 4 28 c3 15 8 43 12 62
12 70 11 314 -3 399 -8 47 -11 102 -8 121 14 74 16 99 19 227 3 118 -2 194
-19 288 l-5 31 -71 -1 -70 -1 6 61 c4 33 9 69 11 80 13 63 3 337 -15 401 l-7
29 -108 3 -107 3 6 28 c29 131 25 473 -6 532 -6 13 -23 16 -74 15 l-67 -2 7
55 c4 31 9 64 11 76 6 26 5 281 0 320 -3 17 -8 51 -11 78 -6 46 -7 47 -43 47
-303 3 -802 4 -815 2z m625 -1157 c2 -3 -1 -40 -8 -82 -13 -77 -13 -356 0
-418 16 -76 9 -71 83 -70 78 0 72 13 56 -128 -10 -82 -9 -285 1 -339 3 -18 8
-50 11 -70 l6 -38 -38 0 c-430 -5 -674 -3 -676 5 -2 6 0 24 6 40 15 50 18 381
3 458 -7 37 -10 68 -7 68 3 1 35 2 70 3 63 1 65 2 73 31 29 106 30 325 3 498
l-7 47 209 0 c115 0 212 -2 215 -5z"/>
<path d="M2883 4572 c-19 -2 -34 -10 -37 -20 -25 -77 -29 -410 -7 -505 6 -26
9 -60 6 -75 -22 -112 -27 -335 -11 -452 11 -79 12 -135 2 -175 -15 -60 -15
-327 0 -420 8 -49 12 -101 9 -115 -23 -87 -27 -384 -7 -480 9 -43 8 -74 -2
-140 -14 -88 -14 -336 0 -420 10 -57 9 -89 -2 -170 -16 -119 -9 -399 11 -453
4 -9 2 -47 -5 -84 -23 -125 -20 -373 6 -496 l6 -27 287 0 288 0 7 37 c25 142
27 361 4 477 -7 34 -6 77 3 145 16 118 16 322 -1 419 -6 40 -9 88 -6 106 26
138 26 376 1 507 l-7 36 679 1 c373 0 697 1 719 1 46 1 45 -2 61 121 12 101 5
354 -14 428 -6 26 -14 24 132 26 l110 1 3 576 2 575 -121 -1 c-66 0 -123 3
-125 7 -3 4 0 36 7 70 12 69 16 329 5 393 -16 97 -18 105 -35 105 -81 3 -1944
4 -1968 2z m1693 -581 c0 0 -5 -31 -12 -68 -18 -96 -11 -434 11 -491 2 -7 -2
-42 -9 -77 -17 -82 -18 -326 -2 -428 7 -43 10 -79 7 -81 -3 -1 -260 -2 -571
-1 l-565 0 1 25 c1 14 5 54 9 89 11 90 11 242 0 336 -11 100 -10 155 2 275 13
133 9 274 -13 395 l-5 31 573 -2 c315 -1 573 -2 574 -3z"/>
</g>
</svg>
